<?xml version="1.0" encoding="UTF-8"?>
<svg enable-background="new 0 0 427.5 119" version="1.1" viewBox="0 0 427.5 119" xml:space="preserve" xmlns="http://www.w3.org/2000/svg">
<style type="text/css">
	.st0{fill:#C01818;}
	.st1{fill:#75160D;}
</style>
			<path class="st0" d="m213.5 54.3l-11.2-6.6-0.8 1.3c-2.5 4-6 6-10.3 6-7.4 0-12.9-5.6-12.9-12.9 0-7.4 5.6-12.9 12.9-12.9 4.4 0 7.6 1.9 10.3 6l0.8 1.3 11.2-6.6-1-1.4c-5.4-7.8-12.3-11.5-21.4-11.5-17.1 0-26.3 13-26.3 25.2s9.2 25.2 26.3 25.2c8.7 0 16.9-4.4 21.4-11.6l1-1.5z"/>
			<path class="st0" d="m212.9 67.2h15.4l4.6-11.4h23.1l4.6 11.4h15.5l-27.6-66.7h-13.8l3.7 8.9-25.5 57.8m31.7-40.4l6.2 15.7h-12.6l6.4-15.7z"/>
			<path class="st0" d="m282.5 67.3h13.5v-30h8.8v-12.6h-8.8v-5.9c0-2.6 1.7-5.3 4.9-5.3 1.7 0 2.8 0.3 3.8 0.7l1.5 0.6 5.6-12.3-1.5-0.5c-2.5-1-6-1.4-8.5-1.4-6.1 0-11.2 2-14.6 5.8-3 3.3-4.7 7.9-4.7 13v5.4h-6v12.6h6v29.9z"/>
			<polygon class="st0" points="101.1 0.1 101.1 67.1 115.8 67.2 115.8 28.8 130.1 39.4 144.3 28.8 144.3 67.2 159 67.2 159 0.1 130.1 21.9"/>
			<path class="st0" d="m335.3 17c-17 0-26.2 12.9-26.2 25.1s9.2 25.1 26.2 25.1c7.8-0.1 15.1-3.6 20.8-10.1l-11-6c-2.8 2.9-6.3 4.4-10.1 4.4-5.6 0-10.5-3.7-11.8-8.6h36.8v-3.3c0.1-18.3-14.4-26.5-24.7-26.6zm-11.8 19c1.8-4.6 5.6-7.2 10.5-7.2 5 0 8.9 2.6 10.9 7.3l-21.4-0.1z"/>
			<path class="st0" d="m390.6 17.1c-17 0-26.2 12.9-26.2 25.1s9.2 25.1 26.2 25.1c7.8-0.1 15.1-3.6 20.8-10.1l-11-6c-2.8 2.9-6.3 4.4-10.1 4.4-5.6 0-10.5-3.7-11.8-8.6h36.8v-3.3c0.1-18.3-14.4-26.6-24.7-26.6zm-11.8 18.9c1.8-4.6 5.6-7.3 10.5-7.2 5 0 8.9 2.6 10.9 7.3l-21.4-0.1z"/>
				<path class="st0" d="m413.6 14.8h5.7v1.1h-2.3v6h-1.2v-6h-2.2v-1.1z"/>
				<path class="st0" d="m420.2 14.8h1.7l2 5.5 1.9-5.5h1.7v7.1h-1.2v-5.5l-2 5.5h-1l-2-5.5v5.5h-1.2v-7.1z"/>
				<polygon class="st0" points="14.9 57.3 14.9 23.3 36.3 33.2 36.3 16.8 0 0 0 66.8 36.3 83.6 36.3 67.2"/>
				<polygon class="st1" points="57.8 57.3 57.8 23.3 36.3 33.2 36.3 16.8 72.7 0 72.7 66.8 36.3 83.6 36.3 67.2"/>
		<path class="st0" d="M113.2,110.1h-4.3V87.4h-7.8v-3.7H121v3.7h-7.8V110.1z"/>
		<path class="st0" d="m139 100.1c0 3.3-0.8 5.8-2.5 7.6s-4 2.7-7 2.7c-1.9 0-3.5-0.4-5-1.3-1.4-0.8-2.5-2.1-3.3-3.6-0.8-1.6-1.2-3.4-1.2-5.5 0-3.2 0.8-5.8 2.5-7.6s4-2.7 7-2.7c2.9 0 5.2 0.9 6.9 2.8 1.8 1.9 2.6 4.4 2.6 7.6zm-14.5 0c0 4.6 1.7 6.9 5.1 6.9s5.1-2.3 5.1-6.9-1.7-6.8-5.1-6.8c-1.8 0-3.1 0.6-3.9 1.8-0.8 1.1-1.2 2.8-1.2 5z"/>
		<path class="st0" d="m160.5 90.1v2.3l-3.4 0.6c0.3 0.4 0.6 0.9 0.8 1.6 0.2 0.6 0.3 1.3 0.3 2 0 2.1-0.7 3.7-2.1 4.9s-3.4 1.8-5.9 1.8c-0.6 0-1.2 0-1.7-0.1-0.9 0.6-1.4 1.2-1.4 2 0 0.5 0.2 0.8 0.6 1s1.2 0.3 2.4 0.3h3.5c2.2 0 3.9 0.5 5 1.4s1.7 2.3 1.7 4.1c0 2.3-0.9 4-2.8 5.2s-4.6 1.8-8.1 1.8c-2.7 0-4.8-0.5-6.2-1.4-1.4-1-2.1-2.3-2.1-4.1 0-1.2 0.4-2.3 1.2-3.1s1.9-1.4 3.3-1.7c-0.6-0.2-1-0.6-1.4-1.2-0.4-0.5-0.6-1.1-0.6-1.7 0-0.7 0.2-1.4 0.6-1.9s1-1 1.9-1.5c-1-0.4-1.9-1.2-2.5-2.2s-1-2.2-1-3.5c0-2.2 0.7-3.8 2.1-5s3.3-1.8 5.8-1.8c0.6 0 1.2 0 1.8 0.1s1.1 0.2 1.4 0.2h6.8zm-15.7 23.1c0 0.9 0.4 1.6 1.2 2.1s2 0.7 3.5 0.7c2.3 0 4-0.3 5.2-1 1.1-0.7 1.7-1.5 1.7-2.6 0-0.9-0.3-1.5-0.9-1.9s-1.8-0.6-3.5-0.6h-3.2c-1.2 0-2.2 0.3-2.9 0.9-0.8 0.7-1.1 1.4-1.1 2.4zm1.8-16.6c0 1.3 0.3 2.2 1 2.9 0.6 0.7 1.6 1 2.8 1 2.5 0 3.7-1.3 3.7-3.9 0-1.3-0.3-2.3-0.9-3s-1.5-1.1-2.8-1.1c-1.2 0-2.2 0.3-2.8 1-0.7 0.7-1 1.8-1 3.1z"/>
		<path class="st0" d="m172.2 110.5c-3.1 0-5.5-0.9-7.3-2.7s-2.6-4.3-2.6-7.5c0-3.3 0.8-5.8 2.4-7.7s3.9-2.8 6.7-2.8c2.6 0 4.7 0.8 6.3 2.4 1.5 1.6 2.3 3.8 2.3 6.6v2.3h-13.3c0.1 1.9 0.6 3.4 1.6 4.5 1 1 2.4 1.6 4.2 1.6 1.2 0 2.3-0.1 3.3-0.3s2.1-0.6 3.3-1.1v3.5c-1 0.5-2.1 0.8-3.1 1-1.2 0.1-2.4 0.2-3.8 0.2zm-0.8-17.5c-1.3 0-2.4 0.4-3.2 1.3s-1.3 2.1-1.5 3.7h9.1c0-1.7-0.4-2.9-1.2-3.7-0.8-0.9-1.8-1.3-3.2-1.3z"/>
		<path class="st0" d="m192.1 107c1 0 2.1-0.2 3.1-0.5v3.2c-0.5 0.2-1.1 0.4-1.8 0.5s-1.5 0.2-2.3 0.2c-4 0-6-2.1-6-6.4v-10.6h-2.7v-1.9l2.9-1.6 1.4-4.2h2.6v4.4h5.7v3.2h-5.7v10.7c0 1 0.3 1.8 0.8 2.3s1.2 0.7 2 0.7z"/>
		<path class="st0" d="m216.3 110.1h-4.3v-12.3c0-1.5-0.3-2.7-0.9-3.5s-1.6-1.1-3-1.1c-1.8 0-3.1 0.5-3.9 1.6s-1.3 2.9-1.3 5.4v9.9h-4.2v-28.1h4.2v7.1c0 1.1-0.1 2.4-0.2 3.7h0.3c0.6-1 1.4-1.7 2.4-2.2s2.2-0.8 3.6-0.8c4.8 0 7.3 2.4 7.3 7.3v13z"/>
		<path class="st0" d="m230.8 110.5c-3.1 0-5.5-0.9-7.3-2.7s-2.6-4.3-2.6-7.5c0-3.3 0.8-5.8 2.4-7.7s3.9-2.8 6.7-2.8c2.6 0 4.7 0.8 6.3 2.4 1.5 1.6 2.3 3.8 2.3 6.6v2.3h-13.3c0.1 1.9 0.6 3.4 1.6 4.5 1 1 2.4 1.6 4.2 1.6 1.2 0 2.3-0.1 3.3-0.3s2.1-0.6 3.3-1.1v3.5c-1 0.5-2.1 0.8-3.1 1-1.2 0.1-2.4 0.2-3.8 0.2zm-0.8-17.5c-1.3 0-2.4 0.4-3.2 1.3s-1.3 2.1-1.5 3.7h9.1c0-1.7-0.4-2.9-1.2-3.7-0.7-0.9-1.8-1.3-3.2-1.3z"/>
		<path class="st0" d="m253.3 89.8c0.9 0 1.6 0.1 2.1 0.2l-0.4 4c-0.6-0.1-1.2-0.2-1.9-0.2-1.7 0-3.1 0.6-4.1 1.7-1.1 1.1-1.6 2.5-1.6 4.3v10.4h-4.2v-20h3.3l0.6 3.5h0.2c0.7-1.2 1.5-2.1 2.6-2.8 1-0.8 2.1-1.1 3.4-1.1z"/>
		<path class="st0" d="m268.6 84.8c0-0.8 0.2-1.3 0.6-1.8 0.4-0.4 1-0.6 1.8-0.6 0.7 0 1.3 0.2 1.7 0.6s0.6 1 0.6 1.8c0 0.7-0.2 1.3-0.6 1.7s-1 0.6-1.7 0.6c-0.8 0-1.4-0.2-1.8-0.6s-0.6-0.9-0.6-1.7zm4.5 25.3h-4.2v-20h4.2v20z"/>
		<path class="st0" d="m292.3 104.4c0 2-0.7 3.4-2.1 4.5-1.4 1-3.5 1.6-6.1 1.6-2.7 0-4.8-0.4-6.4-1.2v-3.7c2.3 1.1 4.5 1.6 6.6 1.6 2.6 0 3.9-0.8 3.9-2.4 0-0.5-0.1-0.9-0.4-1.3-0.3-0.3-0.8-0.7-1.4-1-0.7-0.4-1.6-0.8-2.8-1.2-2.3-0.9-3.9-1.8-4.7-2.7s-1.2-2-1.2-3.5c0-1.7 0.7-3 2.1-4 1.4-0.9 3.3-1.4 5.6-1.4s4.6 0.5 6.7 1.4l-1.4 3.2c-2.2-0.9-4-1.3-5.4-1.3-2.2 0-3.4 0.6-3.4 1.9 0 0.6 0.3 1.2 0.9 1.6s1.9 1 3.8 1.8c1.7 0.6 2.8 1.2 3.6 1.8 0.7 0.5 1.3 1.1 1.7 1.8s0.4 1.6 0.4 2.5z"/>
		<path class="st0" d="m316.8 110.5c-2.5 0-4.5-0.9-5.9-2.7h-0.3c0.2 1.7 0.3 2.7 0.3 3.1v8.2h-4.2v-29h3.4c0.1 0.4 0.3 1.3 0.6 2.7h0.2c1.3-2 3.3-3 6-3 2.5 0 4.4 0.9 5.8 2.7s2.1 4.3 2.1 7.6-0.7 5.8-2.1 7.6c-1.5 1.9-3.4 2.8-5.9 2.8zm-1.1-17.3c-1.7 0-2.9 0.5-3.7 1.5s-1.2 2.6-1.2 4.7v0.6c0 2.4 0.4 4.2 1.2 5.3s2 1.6 3.8 1.6c1.5 0 2.6-0.6 3.4-1.8s1.2-2.9 1.2-5.1-0.4-3.9-1.2-5.1-1.9-1.7-3.5-1.7z"/>
		<path class="st0" d="m347.3 100.1c0 3.3-0.8 5.8-2.5 7.6s-4 2.7-7 2.7c-1.9 0-3.5-0.4-5-1.3-1.4-0.8-2.5-2.1-3.3-3.6-0.8-1.6-1.2-3.4-1.2-5.5 0-3.2 0.8-5.8 2.5-7.6s4-2.7 7-2.7c2.9 0 5.2 0.9 6.9 2.8s2.6 4.4 2.6 7.6zm-14.6 0c0 4.6 1.7 6.9 5.1 6.9s5.1-2.3 5.1-6.9-1.7-6.8-5.1-6.8c-1.8 0-3.1 0.6-3.9 1.8s-1.2 2.8-1.2 5z"/>
		<path class="st0" d="m368.2 110.1l-2.6-9.3c-0.3-1-0.9-3.3-1.7-6.9h-0.2c-0.7 3.3-1.3 5.6-1.7 6.9l-2.7 9.3h-4.7l-5.6-20h4.3l2.5 9.8c0.6 2.4 1 4.5 1.2 6.3h0.1c0.1-0.9 0.3-1.9 0.6-3 0.2-1.1 0.5-2 0.6-2.6l3-10.5h4.7l2.9 10.5c0.2 0.6 0.4 1.5 0.7 2.7s0.4 2.2 0.5 2.8h0.1c0.2-1.5 0.6-3.6 1.3-6.2l2.6-9.8h4.3l-5.6 20h-4.6z"/>
		<path class="st0" d="m390.4 110.5c-3.1 0-5.5-0.9-7.3-2.7s-2.6-4.3-2.6-7.5c0-3.3 0.8-5.8 2.4-7.7s3.9-2.8 6.7-2.8c2.6 0 4.7 0.8 6.3 2.4 1.5 1.6 2.3 3.8 2.3 6.6v2.3h-13.3c0.1 1.9 0.6 3.4 1.6 4.5 1 1 2.4 1.6 4.2 1.6 1.2 0 2.3-0.1 3.3-0.3s2.1-0.6 3.3-1.1v3.5c-1 0.5-2.1 0.8-3.1 1-1.3 0.1-2.5 0.2-3.8 0.2zm-0.8-17.5c-1.3 0-2.4 0.4-3.2 1.3s-1.3 2.1-1.5 3.7h9.1c0-1.7-0.4-2.9-1.2-3.7-0.8-0.9-1.9-1.3-3.2-1.3z"/>
		<path class="st0" d="m413 89.8c0.9 0 1.6 0.1 2.1 0.2l-0.4 4c-0.6-0.1-1.2-0.2-1.9-0.2-1.7 0-3.1 0.6-4.1 1.7-1.1 1.1-1.6 2.5-1.6 4.3v10.4h-4.2v-20h3.3l0.6 3.5h0.2c0.7-1.2 1.5-2.1 2.6-2.8 1-0.8 2.1-1.1 3.4-1.1z"/>
		<path class="st0" d="m415.1 107.9c0-0.9 0.2-1.6 0.7-2 0.5-0.5 1.1-0.7 2-0.7s1.5 0.2 2 0.7 0.7 1.2 0.7 2c0 0.9-0.2 1.5-0.7 2s-1.1 0.7-2 0.7-1.5-0.2-2-0.7-0.7-1.2-0.7-2z"/>
</svg>
